<svg id="Shard_-_final" data-name="Shard - final" xmlns="http://www.w3.org/2000/svg" viewBox="0 0 512 512">
  <defs>
    <style>
      .cls-1 {
        fill: #005695;
      }

      .cls-2 {
        fill: #fff;
      }
    </style>
  </defs>
  <title>Artboard 1</title>
  <rect class="cls-1" x="-0.4902" y="-0.75" width="513" height="512.5"/>
  <path class="cls-2" d="M247.85622,340.24851l43.16327-170.21588h93.39179c49.78667,0,78.99507,13.46914,68.5197,54.71068-10.4697,41.24012-46.48276,54.68236-96.26939,54.68236H319.5283l-15.4192,60.82285Zm109.00642-93.82089c22.43063-.71941,33.83358-9.19657,37.00721-21.68431,3.1538-12.50332-3.961-20.96631-26.00639-21.714h-28.945l-11.01634,43.39836Z"/>
  <polygon class="cls-2" points="80.062 203.029 88.442 170.033 153.747 170.033 209.999 170.033 270.415 170.033 262.04 203.029 201.618 203.029 166.816 340.249 110.564 340.249 145.367 203.029 80.062 203.029"/>
</svg>
